<svg xmlns="http://www.w3.org/2000/svg" viewBox="0 0 548.87 529.08"><defs><style>.cls-1{fill:#38c1b0;}.cls-2{fill:#bbdd52;}.cls-3{fill:#61d8c7;}.cls-4{fill:#99bf38;}</style></defs><g id="Layer_2" data-name="Layer 2"><g id="Layer_1-2" data-name="Layer 1"><polygon class="cls-1" points="264.41 288.57 264.41 528.95 144.22 408.76 264.41 288.57"/><polygon class="cls-2" points="0 264.54 122.24 142.3 122.24 386.78 0 264.54"/><polygon class="cls-3" points="142.17 146.4 260.31 264.54 142.17 382.64 142.17 146.4"/><polygon class="cls-1" points="264.41 0.13 264.41 240.47 144.26 120.32 264.41 0.13"/><polygon class="cls-2" points="469.99 185.65 349.75 305.88 339.81 315.87 329.82 325.81 325.73 329.95 284.34 371.3 284.34 0 404.57 120.23 418.66 134.32 469.99 185.65"/><polygon class="cls-4" points="329.82 353.99 329.82 483.59 284.34 529.08 284.34 399.47 329.82 353.99"/><polygon class="cls-3" points="548.87 264.54 418.65 394.76 404.56 408.85 349.7 463.71 349.7 334.06 353.85 329.96 484.06 199.74 548.87 264.54"/></g></g></svg>